<?xml version="1.0" encoding="UTF-8"?>
<svg version="1.1" xmlns="http://www.w3.org/2000/svg" width="611" height="899">
<path d="M0 0 C2.30053211 -0.00873019 4.6010447 -0.02625806 6.90145177 -0.05178332 C13.20252129 -0.09639056 19.49675866 -0.01670855 25.79695737 0.0837779 C31.89879089 0.16141636 37.99971935 0.14455327 44.10190527 0.13014106 C56.57717572 0.10391887 69.05032084 0.1704686 81.52497292 0.2904892 C93.87047677 0.40896192 106.21509476 0.48583344 118.56116295 0.50754547 C119.3296918 0.50892026 120.09822064 0.51029506 120.89003824 0.51171151 C124.79324591 0.51847847 128.69645435 0.52450604 132.59966364 0.53024903 C160.22339106 0.57222198 187.84596306 0.70686749 215.46903992 0.89630127 C242.29905567 1.08008359 269.1287549 1.2217088 295.95927429 1.30645752 C296.78676548 1.30908804 297.61425667 1.31171857 298.46682336 1.3144288 C306.77707292 1.34079993 315.08732493 1.3663161 323.39757906 1.39120599 C340.32548421 1.44192589 357.25336875 1.49835093 374.1812439 1.55822754 C374.95950548 1.56097334 375.73776706 1.56371914 376.53961233 1.56654814 C428.48247661 1.75046254 480.42467751 2.06777193 532.366745 2.40509033 C530.74559621 6.6593123 528.62395406 10.2298317 526.054245 13.96759033 C525.14426935 15.31188395 524.23547468 16.65697753 523.3276825 18.00274658 C522.60403503 19.07419922 522.60403503 19.07419922 521.86576843 20.16729736 C519.26268751 24.05326475 516.72244007 27.97977461 514.179245 31.90509033 C513.06989772 33.61474374 511.96052206 35.32437873 510.85112 37.03399658 C510.28328796 37.90943115 509.71545593 38.78486572 509.13041687 39.68682861 C506.06724375 44.40794843 502.99965905 49.12617696 499.929245 53.84259033 C499.1080719 55.10716064 499.1080719 55.10716064 498.27030945 56.39727783 C497.10421445 58.18773997 495.90585721 59.95750577 494.68006897 61.7076416 C492.79473696 64.53669239 491.43307179 67.43568846 490.05810547 70.54199219 C486.59694929 77.66710832 482.90408624 84.73059665 475.12406349 87.60179329 C466.0534008 89.34102901 456.85747385 89.02503316 447.66751146 88.73629212 C443.64124133 88.63225649 439.61538408 88.64878724 435.58802795 88.65184021 C427.9822105 88.63963462 420.38203336 88.52100275 412.77800214 88.36287278 C404.11311817 88.18795589 395.44873997 88.13356011 386.78235936 88.08864367 C368.97447302 87.99368091 351.17146868 87.74945535 333.366745 87.40509033 C333.96930115 88.19883057 334.5718573 88.9925708 335.19267273 89.81036377 C335.99950405 90.87831505 336.80621986 91.94635359 337.61283875 93.01446533 C338.4010199 94.05570557 339.18920105 95.0969458 340.00126648 96.16973877 C355.99659974 117.70055037 370.366745 148.15909135 370.366745 175.40509033 C423.826745 175.40509033 477.286745 175.40509033 532.366745 175.40509033 C526.74343093 185.52705565 526.74343093 185.52705565 523.6870575 190.16290283 C523.01336121 191.18859375 522.33966492 192.21428467 521.64555359 193.27105713 C520.93479675 194.34653809 520.22403992 195.42201904 519.491745 196.53009033 C518.73569777 197.6793552 517.98000743 198.82885492 517.22465515 199.97857666 C515.68401414 202.32319265 514.1420542 204.66693249 512.59916687 207.0100708 C509.29756929 212.02727053 506.01974443 217.05995356 502.741745 222.09259033 C498.87584784 228.02483235 495.00772081 233.95558083 491.13237 239.88165283 C490.43966003 240.94166504 489.74695007 242.00167725 489.0332489 243.09381104 C487.6978369 245.13717345 486.36160689 247.18000156 485.02445984 249.222229 C484.42842957 250.13464355 483.83239929 251.04705811 483.2183075 251.98712158 C482.69059753 252.79383301 482.16288757 253.60054443 481.6191864 254.43170166 C480.34125429 256.37132526 480.34125429 256.37132526 479.366745 258.40509033 C444.716745 258.40509033 410.066745 258.40509033 374.366745 258.40509033 C373.376745 264.67509033 372.386745 270.94509033 371.366745 277.40509033 C370.67802981 280.61044628 369.99251589 283.70069614 369.116745 286.84259033 C368.90549988 287.6144165 368.69425476 288.38624268 368.47660828 289.18145752 C360.16232113 318.79774813 346.88613738 346.53443622 327.366745 370.40509033 C326.59717468 371.37833252 325.82760437 372.35157471 325.03471375 373.35430908 C312.32583505 388.98522918 297.76868308 403.66879295 281.366745 415.40509033 C279.99820445 416.40632276 278.62971753 417.4076285 277.26127625 418.40899658 C221.4575943 458.85811103 156.13144248 476.06607132 88.366745 482.40509033 C88.91648987 483.06758789 88.91648987 483.06758789 89.4773407 483.74346924 C96.16417915 491.81023083 102.80993781 499.89845903 109.2507782 508.16339111 C112.73351782 512.62368614 116.28825099 517.02135654 119.866745 521.40509033 C123.89885328 526.34451159 127.88485352 531.31328269 131.804245 536.34259033 C135.90612423 541.60264723 140.11252537 546.76759397 144.366745 551.90509033 C149.07971932 557.59658974 153.71127343 563.33833479 158.25346375 569.16680908 C161.73528476 573.62598337 165.28922571 578.02243265 168.866745 582.40509033 C172.91656954 587.36741751 176.92459914 592.35678152 180.866745 597.40509033 C186.92588044 605.15945931 193.14407379 612.78177098 199.366745 620.40509033 C206.04771511 628.58986615 212.7004426 636.78912763 219.20317078 645.11651611 C223.24608601 650.28157045 227.38536351 655.36526167 231.53300476 660.4463501 C235.00567982 664.70819942 238.42500806 669.00640134 241.804245 673.34259033 C245.90612423 678.60264723 250.11252537 683.76759397 254.366745 688.90509033 C259.07971932 694.59658974 263.71127343 700.33833479 268.25346375 706.16680908 C271.73528433 710.62598281 275.28920023 715.02245376 278.866745 719.40509033 C283.00114706 724.47051024 287.0904969 729.56575506 291.116745 734.71759033 C294.99367827 739.67658686 298.93097509 744.57806478 302.929245 749.44024658 C310.45078998 758.5890489 317.91276104 767.78029004 325.20219421 777.11529541 C329.24547008 782.28073 333.38503329 787.36485713 337.53300476 792.4463501 C341.00567982 796.70819942 344.42500806 801.00640134 347.804245 805.34259033 C351.90612423 810.60264723 356.11252537 815.76759397 360.366745 820.90509033 C365.07971932 826.59658974 369.71127343 832.33833479 374.25346375 838.16680908 C377.73528433 842.62598281 381.28920023 847.02245376 384.866745 851.40509033 C389.46886885 857.04355737 394.00200839 862.72932359 398.48173523 868.46539307 C401.25154495 872.00557988 404.06817498 875.50023403 406.929245 878.96759033 C410.33167854 883.10351951 413.65396894 887.29330795 416.929245 891.53009033 C417.371474 892.09929199 417.813703 892.66849365 418.26933289 893.25494385 C421.366745 897.28472448 421.366745 897.28472448 421.366745 898.40509033 C402.16479575 898.77973646 382.96359312 899.06142128 363.75874043 899.23408508 C354.84028895 899.31640806 345.9241148 899.42851746 337.00712585 899.61212158 C329.2300031 899.77217836 321.4545298 899.87495279 313.67580575 899.91050625 C309.5602676 899.93127697 305.44944539 899.97964495 301.33542824 900.09677124 C274.33314358 900.83599225 274.33314358 900.83599225 267.58094788 894.98492432 C264.64677032 891.75993236 262.47657928 888.31637547 260.48834801 884.44926453 C258.65380676 881.1057269 256.22700681 878.27149572 253.804245 875.34259033 C252.90394461 874.19793718 252.0064217 873.05108891 251.11283875 871.90118408 C248.22450851 868.21406464 245.29777617 864.55830051 242.366745 860.90509033 C238.52410132 856.11565476 234.71124673 851.30503441 230.929245 846.46759033 C226.96475399 841.39993661 222.9340943 836.39050702 218.866745 831.40509033 C212.48530778 823.58156285 206.24475597 815.65437233 200.03276062 807.69610596 C194.16843744 800.18806008 188.22786028 792.7505808 182.20536804 785.36871338 C178.23581144 780.49546048 174.33171644 775.57540265 170.460495 770.62384033 C167.12519772 766.36046033 163.75417066 762.12714638 160.366745 757.90509033 C156.52410132 753.11565476 152.71124673 748.30503441 148.929245 743.46759033 C144.96475399 738.39993661 140.9340943 733.39050702 136.866745 728.40509033 C130.48530778 720.58156285 124.24475597 712.65437233 118.03276062 704.69610596 C112.70806166 697.87893663 107.33432552 691.10842773 101.866745 684.40509033 C95.48541057 676.58147668 89.24475804 668.65437498 83.03276062 660.69610596 C77.16780894 653.18725541 71.22719474 645.74846506 65.20317078 638.36651611 C61.25509425 633.52056491 57.37889689 628.62356939 53.53300476 623.6963501 C50.01299354 619.19845187 46.41817611 614.76523331 42.804245 610.34259033 C38.07709224 604.55514164 33.48834724 598.68689943 28.95658875 592.74493408 C26.01957267 588.92715723 22.97602109 585.1979551 19.929245 581.46759033 C13.52399634 573.62523068 7.26298912 565.67773105 1.03276062 557.69610596 C-4.83156256 550.18806008 -10.77213972 542.7505808 -16.79463196 535.36871338 C-20.75825818 530.50274094 -24.65720642 525.59054922 -28.52192688 520.64581299 C-32.52819085 515.52360214 -36.58839258 510.44563109 -40.66279602 505.37750244 C-41.13773499 504.78590332 -41.61267395 504.1943042 -42.102005 503.58477783 C-42.72752258 502.80723145 -42.72752258 502.80723145 -43.36567688 502.01397705 C-43.78397766 501.48304443 -44.20227844 500.95211182 -44.633255 500.40509033 C-45.14737442 499.87273773 -45.66149384 499.34038513 -46.19119263 498.79190063 C-48.20382414 495.46072043 -48.02933223 492.38255408 -47.97383118 488.60723877 C-47.9744883 487.43593414 -47.9744883 487.43593414 -47.97515869 486.2409668 C-47.97307209 483.66521015 -47.94974751 481.09010798 -47.92622375 478.51446533 C-47.92062734 476.72656612 -47.91635745 474.9386623 -47.9133606 473.15075684 C-47.90191543 468.44886537 -47.87245108 463.74725265 -47.83924866 459.04547119 C-47.8085407 454.24611176 -47.79485371 449.44670722 -47.77973938 444.64727783 C-47.74758107 435.23309297 -47.69638866 425.81911485 -47.633255 416.40509033 C-46.52952545 416.39478287 -45.4257959 416.3844754 -44.28862 416.37385559 C-33.78810121 416.27527388 -23.28763065 416.17247573 -12.78719139 416.06575108 C-7.39133283 416.01103857 -1.99546863 415.95771312 3.4004364 415.90777588 C8.62656308 415.85935519 13.85263808 415.80700623 19.07870102 415.75214958 C21.0533402 415.73207114 23.02799332 415.71331055 25.00265884 415.69601631 C87.08473448 415.14685206 151.36046165 406.96718778 200.366745 365.40509033 C201.35416687 364.57106689 202.34158875 363.73704346 203.3589325 362.87774658 C209.77536115 357.25226273 215.19116015 351.17831412 220.366745 344.40509033 C221.03319031 343.55430908 221.69963562 342.70352783 222.38627625 341.82696533 C241.64042754 316.45857664 247.57447046 290.00737816 251.366745 258.40509033 C143.456745 258.40509033 35.546745 258.40509033 -75.633255 258.40509033 C-73.80943491 253.84554009 -71.62900469 250.08569643 -68.945755 246.03009033 C-68.46590149 245.2967749 -67.98604797 244.56345947 -67.49165344 243.80792236 C-66.43788247 242.1979018 -65.3822974 240.5890675 -64.32514954 238.98126221 C-61.96040524 235.38057219 -59.61063344 231.7701909 -57.25971985 228.16046143 C-55.35601049 225.23827004 -53.44998216 222.31760289 -51.54341125 219.39727783 C-48.92336576 215.38350731 -46.3063335 211.36779765 -43.69184875 207.35040283 C-43.04312805 206.35411865 -42.39440735 205.35783447 -41.72602844 204.33135986 C-40.5112148 202.46555306 -39.29696264 200.59938049 -38.08345032 198.73272705 C-36.95208761 196.99585079 -35.79791073 195.27358799 -34.61969566 193.56814671 C-33.13272418 191.20040689 -32.05436064 189.15785124 -30.96689796 186.62828732 C-28.87612062 182.20169284 -26.61632194 178.36337188 -22.633255 175.40509033 C-14.71386797 172.57406764 -5.71578505 173.51291241 2.55278015 173.70220947 C5.13550061 173.70644324 7.71823912 173.70406036 10.3009491 173.6955719 C15.85020098 173.68773068 21.39679439 173.73451989 26.94537735 173.81913948 C34.96706765 173.94139554 42.98748118 173.98014459 51.01000206 173.99895936 C64.02726775 174.03173602 77.04311823 174.13141072 90.05961609 174.27349854 C102.6988673 174.4113243 115.33773322 174.51742981 127.97758484 174.58111572 C128.75755045 174.58505658 129.53751605 174.58899743 130.34111698 174.5930577 C134.25423489 174.6126342 138.16735551 174.6315896 142.08047795 174.65023625 C174.51026196 174.80557202 206.93830651 175.06961908 239.366745 175.40509033 C237.8025373 172.37126413 236.22810533 169.34285511 234.65190125 166.31524658 C234.21317688 165.46402222 233.77445251 164.61279785 233.32243347 163.73577881 C229.64130567 156.68438911 225.49361954 150.51023776 220.366745 144.40509033 C219.63713562 143.53626221 218.90752625 142.66743408 218.1558075 141.77227783 C184.85938348 103.56901238 132.80717815 92.43145804 84.32463074 88.8600769 C65.83007533 87.59963944 47.39892974 87.07085054 28.8617115 87.00037336 C25.16359925 86.98430765 21.46556017 86.95766684 17.76750183 86.93234253 C10.82352483 86.88629788 3.87953283 86.84920474 -3.06451464 86.81566966 C-10.9950191 86.77690907 -18.92544877 86.7276485 -26.85588932 86.6776855 C-43.1149568 86.5754768 -59.37406659 86.48587047 -75.633255 86.40509033 C-74.81864233 82.75232198 -73.42788774 80.23187952 -71.38716125 77.07305908 C-70.38616394 75.51591187 -70.38616394 75.51591187 -69.36494446 73.92730713 C-68.64911194 72.82685059 -67.93327942 71.72639404 -67.195755 70.59259033 C-66.45735915 69.44934865 -65.71932387 68.305874 -64.98164368 67.16217041 C-60.80284928 60.69441654 -56.58018564 54.25665476 -52.28511047 47.86553955 C-47.91491732 41.36017932 -43.65822394 34.78160569 -39.39497375 28.20587158 C-38.85322453 27.41186093 -38.3114753 26.61785028 -37.75330943 25.7997787 C-36.01384983 23.14474275 -34.62001058 20.39428091 -33.21785003 17.54816175 C-24.85309844 1.54855112 -17.37315186 -0.49110412 0 0 Z " fill="#000000" transform="translate(75.63325500488281,0.59490966796875)"/>
</svg>
